<svg width="14" height="138" viewBox="0 0 14 138" fill="none" xmlns="http://www.w3.org/2000/svg">
<path d="M5.23828 24.5645C5.57031 24.5645 5.82422 24.4473 6 24.2129C6.17969 23.9785 6.36719 23.5566 6.5625 22.9473C6.76172 22.3379 6.95703 21.8555 7.14844 21.5C7.67187 20.5312 8.37695 20.0469 9.26367 20.0469C9.72461 20.0469 10.1348 20.1758 10.4941 20.4336C10.8574 20.6953 11.1406 21.0684 11.3437 21.5527C11.5469 22.041 11.6484 22.5879 11.6484 23.1934C11.6484 23.8027 11.5371 24.3457 11.3145 24.8223C11.0957 25.2988 10.7852 25.668 10.3828 25.9297C9.98047 26.1953 9.52344 26.3281 9.01172 26.3281L9.01172 24.5703C9.40234 24.5703 9.70508 24.4473 9.91992 24.2012C10.1387 23.9551 10.248 23.6094 10.248 23.1641C10.248 22.7344 10.1562 22.4004 9.97266 22.1621C9.79297 21.9238 9.55469 21.8047 9.25781 21.8047C8.98047 21.8047 8.74805 21.9434 8.56055 22.2207C8.37305 22.502 8.19727 22.9141 8.0332 23.457C7.73242 24.457 7.35937 25.1855 6.91406 25.6426C6.46875 26.0996 5.91406 26.3281 5.25 26.3281C4.51172 26.3281 3.93164 26.0488 3.50977 25.4902C3.0918 24.9316 2.88281 24.1797 2.88281 23.2344C2.88281 22.5781 3.00195 21.9805 3.24023 21.4414C3.48242 20.9023 3.8125 20.4902 4.23047 20.2051C4.64844 19.9238 5.13281 19.7832 5.68359 19.7832L5.68359 21.5469C4.74219 21.5469 4.27148 22.1094 4.27148 23.2344C4.27148 23.6523 4.35547 23.9785 4.52344 24.2129C4.69531 24.4473 4.93359 24.5645 5.23828 24.5645ZM5.8418 37.8207C4.92383 37.7543 4.20117 37.4145 3.67383 36.8012C3.14648 36.1918 2.88281 35.3871 2.88281 34.3871C2.88281 33.2934 3.25 32.432 3.98437 31.8031C4.72266 31.1781 5.73437 30.8656 7.01953 30.8656L7.54102 30.8656C8.36133 30.8656 9.08398 31.0102 9.70898 31.2992C10.334 31.5883 10.8125 32.0004 11.1445 32.5355C11.4805 33.0746 11.6484 33.6996 11.6484 34.4105C11.6484 35.3949 11.3848 36.1879 10.8574 36.7895C10.3301 37.391 9.58984 37.7387 8.63672 37.8324L8.63672 36.0746C9.1875 36.0316 9.58594 35.8773 9.83203 35.6117C10.082 35.35 10.207 34.9496 10.207 34.4105C10.207 33.8246 9.99609 33.3852 9.57422 33.0922C9.15625 32.8031 8.50586 32.6547 7.62305 32.6469L6.97852 32.6469C6.05664 32.6469 5.38281 32.7855 4.95703 33.0629C4.53125 33.3441 4.31836 33.7855 4.31836 34.3871C4.31836 34.9301 4.44141 35.3344 4.6875 35.6C4.9375 35.8695 5.32226 36.0238 5.8418 36.0629L5.8418 37.8207ZM6.12305 45.7332L6.12305 44.3328L3 44.3328L3 42.575L11.5312 42.575L11.5312 45.7449C11.5312 46.7527 11.3066 47.5301 10.8574 48.077C10.4082 48.6238 9.77344 48.8973 8.95312 48.8973C8.37109 48.8973 7.88476 48.7703 7.49414 48.5164C7.10742 48.2664 6.79883 47.8855 6.56836 47.3738L3.08203 49.2195L3 49.2195L3 47.3328L6.12305 45.7332ZM7.54687 44.3328L7.54687 45.7508C7.54687 46.1922 7.6582 46.534 7.88086 46.7762C8.10742 47.0184 8.41797 47.1395 8.8125 47.1395C9.21484 47.1395 9.53125 47.0242 9.76172 46.7938C9.99219 46.5672 10.1074 46.2176 10.1074 45.7449L10.1074 44.3328L7.54687 44.3328ZM7.07226 60.8469C6.23242 60.8469 5.49609 60.6984 4.86328 60.4016C4.23047 60.1047 3.74219 59.6789 3.39844 59.1242C3.05469 58.5734 2.88281 57.9406 2.88281 57.2258C2.88281 56.5187 3.05273 55.8879 3.39258 55.3332C3.73242 54.7785 4.2168 54.3488 4.8457 54.0441C5.47851 53.7395 6.20508 53.5852 7.02539 53.5812L7.44726 53.5812C8.28711 53.5812 9.02539 53.7316 9.66211 54.0324C10.3027 54.3371 10.793 54.7648 11.1328 55.3156C11.4766 55.8703 11.6484 56.5031 11.6484 57.2141C11.6484 57.925 11.4766 58.5559 11.1328 59.1066C10.793 59.6613 10.3027 60.0891 9.66211 60.3898C9.02539 60.6945 8.28906 60.8469 7.45312 60.8469L7.07226 60.8469ZM7.45898 59.0656C8.35351 59.0656 9.0332 58.9055 9.49805 58.5852C9.96289 58.2648 10.1953 57.8078 10.1953 57.2141C10.1953 56.6242 9.96484 56.1691 9.5039 55.8488C9.04687 55.5285 8.375 55.3664 7.48828 55.3625L7.07226 55.3625C6.20117 55.3625 5.52539 55.5227 5.04492 55.843C4.56445 56.1633 4.32422 56.6242 4.32422 57.2258C4.32422 57.8156 4.55469 58.2687 5.01562 58.5852C5.48047 58.9016 6.15625 59.0617 7.04297 59.0656L7.45898 59.0656ZM4.41211 67.482L4.41211 71.2145L3 71.2145L3 65.7242L11.5312 65.7242L11.5312 67.482L4.41211 67.482ZM4.41211 77.5859L4.41211 81.3184L3 81.3184L3 75.8281L11.5312 75.8281L11.5312 77.5859L4.41211 77.5859ZM3 92.5203L11.5312 92.5203L11.5312 95.1453C11.5312 95.8953 11.3613 96.5652 11.0215 97.1551C10.6855 97.7488 10.2051 98.2117 9.58007 98.5437C8.95898 98.8758 8.25195 99.0418 7.45898 99.0418L7.0664 99.0418C6.27343 99.0418 5.56836 98.8777 4.95117 98.5496C4.33398 98.2254 3.85547 97.7664 3.51562 97.1727C3.17578 96.5789 3.0039 95.909 3 95.1629L3 92.5203ZM10.1074 94.2781L4.41211 94.2781L4.41211 95.1277C4.41211 95.8152 4.63672 96.3406 5.08593 96.7039C5.53515 97.0672 6.17773 97.2527 7.01367 97.2605L7.46484 97.2605C8.33203 97.2605 8.98828 97.0809 9.43359 96.7215C9.88281 96.3621 10.1074 95.8367 10.1074 95.1453L10.1074 94.2781ZM7.07226 110.933C6.23242 110.933 5.49609 110.784 4.86328 110.488C4.23046 110.191 3.74218 109.765 3.39843 109.21C3.05468 108.659 2.88281 108.027 2.88281 107.312C2.88281 106.605 3.05273 105.974 3.39257 105.419C3.73242 104.864 4.21679 104.435 4.8457 104.13C5.47851 103.825 6.20507 103.671 7.02539 103.667L7.44726 103.667C8.28711 103.667 9.02539 103.818 9.66211 104.118C10.3027 104.423 10.793 104.851 11.1328 105.402C11.4766 105.956 11.6484 106.589 11.6484 107.3C11.6484 108.011 11.4766 108.642 11.1328 109.193C10.793 109.747 10.3027 110.175 9.66211 110.476C9.02539 110.78 8.28906 110.933 7.45312 110.933L7.07226 110.933ZM7.45898 109.152C8.35351 109.152 9.0332 108.991 9.49804 108.671C9.96289 108.351 10.1953 107.894 10.1953 107.3C10.1953 106.71 9.96484 106.255 9.5039 105.935C9.04687 105.614 8.375 105.452 7.48828 105.448L7.07226 105.448C6.20117 105.448 5.52539 105.609 5.04492 105.929C4.56445 106.249 4.32421 106.71 4.32421 107.312C4.32421 107.902 4.55468 108.355 5.01562 108.671C5.48046 108.988 6.15625 109.148 7.04296 109.152L7.45898 109.152ZM5.46093 122.455L11.5312 123.603L11.5312 125.355L3 123.463L3 121.693L8.70703 120.304L3 118.916L3 117.146L11.5312 115.254L11.5312 117.005L5.47265 118.16L11.5312 119.566L11.5312 121.054L5.46093 122.455ZM2.99999 136.848L2.99999 135.09L8.61328 131.668L3 131.668L3 129.91L11.5312 129.91L11.5312 131.668L5.90624 135.096L11.5312 135.096L11.5312 136.848L2.99999 136.848Z" fill="black"/>
<circle cx="7.5" cy="2.5" r="2.5" fill="#343E4B"/>
</svg>
