<svg width="88" height="45" viewBox="0 0 88 45" fill="none" xmlns="http://www.w3.org/2000/svg">
<path d="M19.9631 18.9326H16.0256V23H13.9748V13.0469H20.4553V14.708H16.0256V17.2783H19.9631V18.9326ZM27.3514 20.9492H23.7557L23.0721 23H20.8914L24.5965 13.0469H26.4969L30.2225 23H28.0418L27.3514 20.9492ZM24.3094 19.2881H26.7977L25.5467 15.5625L24.3094 19.2881ZM32.5521 23V13.0469H35.6146C36.4896 13.0469 37.2712 13.2451 37.9594 13.6416C38.6521 14.0335 39.1921 14.5941 39.5795 15.3232C39.9669 16.0479 40.1605 16.8727 40.1605 17.7979V18.2559C40.1605 19.181 39.9691 20.0036 39.5863 20.7236C39.2081 21.4437 38.6726 22.002 37.9799 22.3984C37.2872 22.7949 36.5056 22.9954 35.6352 23H32.5521ZM34.6029 14.708V21.3525H35.5941C36.3962 21.3525 37.0092 21.0905 37.433 20.5664C37.8568 20.0423 38.0733 19.2926 38.0824 18.3174V17.791C38.0824 16.7793 37.8728 16.0137 37.4535 15.4941C37.0342 14.9701 36.4213 14.708 35.6146 14.708H34.6029ZM46.7695 19.5342H42.9209V17.9414H46.7695V19.5342ZM56.3727 18.8848C56.3727 20.2611 56.0878 21.3138 55.5182 22.043C54.9485 22.7721 54.1145 23.1367 53.0162 23.1367C51.9316 23.1367 51.1021 22.779 50.5279 22.0635C49.9537 21.348 49.6598 20.3226 49.6461 18.9873V17.1553C49.6461 15.7653 49.9332 14.7103 50.5074 13.9902C51.0862 13.2702 51.9179 12.9102 53.0025 12.9102C54.0872 12.9102 54.9166 13.2679 55.4908 13.9834C56.065 14.6943 56.359 15.7174 56.3727 17.0527V18.8848ZM54.3971 16.875C54.3971 16.0501 54.2831 15.4508 54.0553 15.0771C53.832 14.6989 53.4811 14.5098 53.0025 14.5098C52.5377 14.5098 52.1936 14.6898 51.9703 15.0498C51.7516 15.4053 51.6353 15.9635 51.6217 16.7246V19.1445C51.6217 19.9557 51.7311 20.5596 51.9498 20.9561C52.1731 21.348 52.5286 21.5439 53.0162 21.5439C53.4993 21.5439 53.8479 21.3548 54.0621 20.9766C54.2763 20.5983 54.388 20.0195 54.3971 19.2402V16.875ZM59.4064 18.1055L59.9807 13.0469H65.5588V14.6943H61.6008L61.3547 16.834C61.8241 16.5833 62.3231 16.458 62.8518 16.458C63.7997 16.458 64.5425 16.752 65.0803 17.3398C65.618 17.9277 65.8869 18.7503 65.8869 19.8076C65.8869 20.4502 65.7502 21.0267 65.4768 21.5371C65.2079 22.043 64.8205 22.4372 64.3146 22.7197C63.8088 22.9977 63.2118 23.1367 62.5236 23.1367C61.9221 23.1367 61.3638 23.016 60.8488 22.7744C60.3339 22.5283 59.926 22.1842 59.6252 21.7422C59.329 21.3001 59.1717 20.7965 59.1535 20.2314H61.1086C61.1496 20.6462 61.2932 20.9697 61.5393 21.2021C61.7899 21.43 62.1158 21.5439 62.5168 21.5439C62.9634 21.5439 63.3075 21.3844 63.549 21.0654C63.7906 20.7419 63.9113 20.2861 63.9113 19.6982C63.9113 19.1331 63.7723 18.7002 63.4943 18.3994C63.2163 18.0986 62.8221 17.9482 62.3117 17.9482C61.8423 17.9482 61.4618 18.0713 61.1701 18.3174L60.9787 18.4951L59.4064 18.1055ZM70.5613 17.1484H71.6141C72.1154 17.1484 72.4868 17.0231 72.7283 16.7725C72.9699 16.5218 73.0906 16.1891 73.0906 15.7744C73.0906 15.3734 72.9699 15.0612 72.7283 14.8379C72.4913 14.6146 72.1632 14.5029 71.7439 14.5029C71.3657 14.5029 71.049 14.6077 70.7938 14.8174C70.5385 15.0225 70.4109 15.2913 70.4109 15.624H68.4354C68.4354 15.1045 68.5743 14.6396 68.8523 14.2295C69.1349 13.8148 69.5268 13.4912 70.0281 13.2588C70.534 13.0264 71.09 12.9102 71.6961 12.9102C72.7488 12.9102 73.5737 13.1631 74.1707 13.6689C74.7677 14.1702 75.0662 14.863 75.0662 15.7471C75.0662 16.2028 74.9272 16.6221 74.6492 17.0049C74.3712 17.3877 74.0066 17.6816 73.5555 17.8867C74.116 18.0872 74.533 18.388 74.8064 18.7891C75.0844 19.1901 75.2234 19.6641 75.2234 20.2109C75.2234 21.0951 74.8999 21.8037 74.2527 22.3369C73.6102 22.8701 72.7579 23.1367 71.6961 23.1367C70.7026 23.1367 69.8891 22.8747 69.2557 22.3506C68.6268 21.8265 68.3123 21.1338 68.3123 20.2725H70.2879C70.2879 20.6462 70.4269 20.9515 70.7049 21.1885C70.9874 21.4255 71.3338 21.5439 71.7439 21.5439C72.2133 21.5439 72.5802 21.4209 72.8445 21.1748C73.1134 20.9242 73.2479 20.5938 73.2479 20.1836C73.2479 19.1901 72.701 18.6934 71.6072 18.6934H70.5613V17.1484Z" fill="#D24C21"/>
<path d="M33.7888 36.9616C30.3796 39.8994 27.9757 42.0211 26.6145 43.3445C24.9365 44.9758 26.8528 42.938 26.8528 40.5977C26.8528 37.1255 24.038 34.3107 20.5658 34.3107H12C5.92487 34.3107 1 29.3859 1 23.3107V12C1 5.92487 5.92487 1 12 1H76C82.0751 1 87 5.92487 87 12V23.3107C87 29.3859 82.0751 34.3107 76 34.3107H40.9411C38.3185 34.3107 35.7755 35.2496 33.7888 36.9616Z" stroke="#D24C21" stroke-width="2"/>
</svg>
