<svg width="88" height="45" viewBox="0 0 88 45" fill="none" xmlns="http://www.w3.org/2000/svg">
<path d="M19.9631 18.9326H16.0256V23H13.9748V13.0469H20.4553V14.708H16.0256V17.2783H19.9631V18.9326ZM27.3514 20.9492H23.7557L23.0721 23H20.8914L24.5965 13.0469H26.4969L30.2225 23H28.0418L27.3514 20.9492ZM24.3094 19.2881H26.7977L25.5467 15.5625L24.3094 19.2881ZM32.5521 23V13.0469H35.6146C36.4896 13.0469 37.2712 13.2451 37.9594 13.6416C38.6521 14.0335 39.1921 14.5941 39.5795 15.3232C39.9669 16.0479 40.1605 16.8727 40.1605 17.7979V18.2559C40.1605 19.181 39.9691 20.0036 39.5863 20.7236C39.2081 21.4437 38.6726 22.002 37.9799 22.3984C37.2872 22.7949 36.5056 22.9954 35.6352 23H32.5521ZM34.6029 14.708V21.3525H35.5941C36.3962 21.3525 37.0092 21.0905 37.433 20.5664C37.8568 20.0423 38.0733 19.2926 38.0824 18.3174V17.791C38.0824 16.7793 37.8728 16.0137 37.4535 15.4941C37.0342 14.9701 36.4213 14.708 35.6146 14.708H34.6029ZM46.7695 19.5342H42.9209V17.9414H46.7695V19.5342ZM56.3727 18.8848C56.3727 20.2611 56.0878 21.3138 55.5182 22.043C54.9485 22.7721 54.1145 23.1367 53.0162 23.1367C51.9316 23.1367 51.1021 22.779 50.5279 22.0635C49.9537 21.348 49.6598 20.3226 49.6461 18.9873V17.1553C49.6461 15.7653 49.9332 14.7103 50.5074 13.9902C51.0862 13.2702 51.9179 12.9102 53.0025 12.9102C54.0872 12.9102 54.9166 13.2679 55.4908 13.9834C56.065 14.6943 56.359 15.7174 56.3727 17.0527V18.8848ZM54.3971 16.875C54.3971 16.0501 54.2831 15.4508 54.0553 15.0771C53.832 14.6989 53.4811 14.5098 53.0025 14.5098C52.5377 14.5098 52.1936 14.6898 51.9703 15.0498C51.7516 15.4053 51.6353 15.9635 51.6217 16.7246V19.1445C51.6217 19.9557 51.7311 20.5596 51.9498 20.9561C52.1731 21.348 52.5286 21.5439 53.0162 21.5439C53.4993 21.5439 53.8479 21.3548 54.0621 20.9766C54.2763 20.5983 54.388 20.0195 54.3971 19.2402V16.875ZM64.4719 12.9443V14.5713H64.2805C63.3872 14.585 62.6672 14.8174 62.1203 15.2686C61.578 15.7197 61.2521 16.3464 61.1428 17.1484C61.6714 16.6107 62.3391 16.3418 63.1457 16.3418C64.0116 16.3418 64.6997 16.6517 65.2102 17.2715C65.7206 17.8913 65.9758 18.707 65.9758 19.7188C65.9758 20.3659 65.8345 20.9515 65.552 21.4756C65.274 21.9997 64.8775 22.4076 64.3625 22.6992C63.8521 22.9909 63.2733 23.1367 62.6262 23.1367C61.578 23.1367 60.7303 22.7721 60.0832 22.043C59.4406 21.3138 59.1193 20.3408 59.1193 19.124V18.4131C59.1193 17.333 59.3221 16.3805 59.7277 15.5557C60.1379 14.7262 60.7235 14.0859 61.4846 13.6348C62.2502 13.179 63.1366 12.9489 64.1437 12.9443H64.4719ZM62.5441 17.9277C62.2251 17.9277 61.9357 18.012 61.676 18.1807C61.4162 18.3447 61.2248 18.5635 61.1018 18.8369V19.4385C61.1018 20.0993 61.2316 20.6165 61.4914 20.9902C61.7512 21.3594 62.1158 21.5439 62.5852 21.5439C63.009 21.5439 63.3508 21.3776 63.6105 21.0449C63.8749 20.7077 64.007 20.2725 64.007 19.7393C64.007 19.1969 63.8749 18.7594 63.6105 18.4268C63.3462 18.0941 62.9908 17.9277 62.5441 17.9277ZM73.3504 23H71.3748V15.3848L69.0164 16.1162V14.5098L73.1385 13.0332H73.3504V23Z" fill="#E2A12E"/>
<path d="M33.7888 36.9616C30.3796 39.8994 27.9757 42.0211 26.6145 43.3445C24.9365 44.9758 26.8528 42.938 26.8528 40.5977C26.8528 37.1255 24.038 34.3107 20.5658 34.3107H12C5.92487 34.3107 1 29.3859 1 23.3107V12C1 5.92487 5.92487 1 12 1H76C82.0751 1 87 5.92487 87 12V23.3107C87 29.3859 82.0751 34.3107 76 34.3107H40.9411C38.3185 34.3107 35.7755 35.2496 33.7888 36.9616Z" stroke="#E2A12E" stroke-width="2"/>
</svg>
